<?xml version="1.0" encoding="UTF-8" standalone="no"?>
<!DOCTYPE svg PUBLIC "-//W3C//DTD SVG 1.1//EN"
 "http://www.w3.org/Graphics/SVG/1.1/DTD/svg11.dtd">
<!-- Generated by graphviz version 2.40.1 (20161225.0304)
 -->
<!-- Title: Tree Pages: 1 -->
<svg width="2258pt" height="552pt"
 viewBox="0.00 0.00 2257.50 552.00" xmlns="http://www.w3.org/2000/svg" xmlns:xlink="http://www.w3.org/1999/xlink">
<g id="graph0" class="graph" transform="scale(1 1) rotate(0) translate(4 548)">
<title>Tree</title>
<polygon fill="#ffffff" stroke="transparent" points="-4,4 -4,-548 2253.5,-548 2253.5,4 -4,4"/>
<!-- 0 -->
<g id="node1" class="node">
<title>0</title>
<path fill="#eca16c" stroke="#000000" d="M1221.5,-544C1221.5,-544 1096.5,-544 1096.5,-544 1090.5,-544 1084.5,-538 1084.5,-532 1084.5,-532 1084.5,-473 1084.5,-473 1084.5,-467 1090.5,-461 1096.5,-461 1096.5,-461 1221.5,-461 1221.5,-461 1227.5,-461 1233.5,-467 1233.5,-473 1233.5,-473 1233.5,-532 1233.5,-532 1233.5,-538 1227.5,-544 1221.5,-544"/>
<text text-anchor="start" x="1124" y="-528.8" font-family="Helvetica,sans-Serif" font-size="14.00" fill="#000000">Age ≤ 41.5</text>
<text text-anchor="start" x="1108" y="-513.8" font-family="Helvetica,sans-Serif" font-size="14.00" fill="#000000">entropy = 0.729</text>
<text text-anchor="start" x="1107" y="-498.8" font-family="Helvetica,sans-Serif" font-size="14.00" fill="#000000">samples = 9000</text>
<text text-anchor="start" x="1092.5" y="-483.8" font-family="Helvetica,sans-Serif" font-size="14.00" fill="#000000">value = [7169, 1831]</text>
<text text-anchor="start" x="1130" y="-468.8" font-family="Helvetica,sans-Serif" font-size="14.00" fill="#000000">class = 1</text>
</g>
<!-- 1 -->
<g id="node2" class="node">
<title>1</title>
<path fill="#e89152" stroke="#000000" d="M924.5,-425C924.5,-425 793.5,-425 793.5,-425 787.5,-425 781.5,-419 781.5,-413 781.5,-413 781.5,-354 781.5,-354 781.5,-348 787.5,-342 793.5,-342 793.5,-342 924.5,-342 924.5,-342 930.5,-342 936.5,-348 936.5,-354 936.5,-354 936.5,-413 936.5,-413 936.5,-419 930.5,-425 924.5,-425"/>
<text text-anchor="start" x="789.5" y="-409.8" font-family="Helvetica,sans-Serif" font-size="14.00" fill="#000000">NumOfProducts ≤ 2.5</text>
<text text-anchor="start" x="808" y="-394.8" font-family="Helvetica,sans-Serif" font-size="14.00" fill="#000000">entropy = 0.507</text>
<text text-anchor="start" x="807" y="-379.8" font-family="Helvetica,sans-Serif" font-size="14.00" fill="#000000">samples = 6130</text>
<text text-anchor="start" x="797" y="-364.8" font-family="Helvetica,sans-Serif" font-size="14.00" fill="#000000">value = [5442, 688]</text>
<text text-anchor="start" x="830" y="-349.8" font-family="Helvetica,sans-Serif" font-size="14.00" fill="#000000">class = 1</text>
</g>
<!-- 0&#45;&gt;1 -->
<g id="edge1" class="edge">
<title>0&#45;&gt;1</title>
<path fill="none" stroke="#000000" d="M1084.4572,-472.9314C1042.5038,-456.2898 989.9018,-435.4244 946.0615,-418.0344"/>
<polygon fill="#000000" stroke="#000000" points="947.1463,-414.6994 936.5603,-414.2656 944.5652,-421.2062 947.1463,-414.6994"/>
<text text-anchor="middle" x="946.4743" y="-433.5158" font-family="Helvetica,sans-Serif" font-size="14.00" fill="#000000">True</text>
</g>
<!-- 16 -->
<g id="node17" class="node">
<title>16</title>
<path fill="#f6d4bc" stroke="#000000" d="M1491.5,-425C1491.5,-425 1342.5,-425 1342.5,-425 1336.5,-425 1330.5,-419 1330.5,-413 1330.5,-413 1330.5,-354 1330.5,-354 1330.5,-348 1336.5,-342 1342.5,-342 1342.5,-342 1491.5,-342 1491.5,-342 1497.5,-342 1503.5,-348 1503.5,-354 1503.5,-354 1503.5,-413 1503.5,-413 1503.5,-419 1497.5,-425 1491.5,-425"/>
<text text-anchor="start" x="1338.5" y="-409.8" font-family="Helvetica,sans-Serif" font-size="14.00" fill="#000000">IsActiveMember_0 ≤ 0.5</text>
<text text-anchor="start" x="1370" y="-394.8" font-family="Helvetica,sans-Serif" font-size="14.00" fill="#000000">entropy = 0.97</text>
<text text-anchor="start" x="1365" y="-379.8" font-family="Helvetica,sans-Serif" font-size="14.00" fill="#000000">samples = 2870</text>
<text text-anchor="start" x="1350.5" y="-364.8" font-family="Helvetica,sans-Serif" font-size="14.00" fill="#000000">value = [1727, 1143]</text>
<text text-anchor="start" x="1388" y="-349.8" font-family="Helvetica,sans-Serif" font-size="14.00" fill="#000000">class = 1</text>
</g>
<!-- 0&#45;&gt;16 -->
<g id="edge16" class="edge">
<title>0&#45;&gt;16</title>
<path fill="none" stroke="#000000" d="M1233.6243,-468.0803C1260.885,-455.5065 1292.1112,-441.1038 1320.9762,-427.7901"/>
<polygon fill="#000000" stroke="#000000" points="1322.6422,-430.876 1330.2569,-423.5094 1319.7104,-424.5196 1322.6422,-430.876"/>
<text text-anchor="middle" x="1321.6085" y="-443.2658" font-family="Helvetica,sans-Serif" font-size="14.00" fill="#000000">False</text>
</g>
<!-- 2 -->
<g id="node3" class="node">
<title>2</title>
<path fill="#e88f4f" stroke="#000000" d="M532.5,-306C532.5,-306 401.5,-306 401.5,-306 395.5,-306 389.5,-300 389.5,-294 389.5,-294 389.5,-235 389.5,-235 389.5,-229 395.5,-223 401.5,-223 401.5,-223 532.5,-223 532.5,-223 538.5,-223 544.5,-229 544.5,-235 544.5,-235 544.5,-294 544.5,-294 544.5,-300 538.5,-306 532.5,-306"/>
<text text-anchor="start" x="397.5" y="-290.8" font-family="Helvetica,sans-Serif" font-size="14.00" fill="#000000">NumOfProducts ≤ 1.5</text>
<text text-anchor="start" x="416" y="-275.8" font-family="Helvetica,sans-Serif" font-size="14.00" fill="#000000">entropy = 0.464</text>
<text text-anchor="start" x="415" y="-260.8" font-family="Helvetica,sans-Serif" font-size="14.00" fill="#000000">samples = 5998</text>
<text text-anchor="start" x="405" y="-245.8" font-family="Helvetica,sans-Serif" font-size="14.00" fill="#000000">value = [5407, 591]</text>
<text text-anchor="start" x="438" y="-230.8" font-family="Helvetica,sans-Serif" font-size="14.00" fill="#000000">class = 1</text>
</g>
<!-- 1&#45;&gt;2 -->
<g id="edge2" class="edge">
<title>1&#45;&gt;2</title>
<path fill="none" stroke="#000000" d="M781.0847,-359.8472C715.7511,-340.0137 622.5093,-311.7082 554.5974,-291.0921"/>
<polygon fill="#000000" stroke="#000000" points="555.3533,-287.6639 544.7678,-288.1081 553.3199,-294.362 555.3533,-287.6639"/>
</g>
<!-- 9 -->
<g id="node10" class="node">
<title>9</title>
<path fill="#80c0ee" stroke="#000000" d="M908,-306C908,-306 810,-306 810,-306 804,-306 798,-300 798,-294 798,-294 798,-235 798,-235 798,-229 804,-223 810,-223 810,-223 908,-223 908,-223 914,-223 920,-229 920,-235 920,-235 920,-294 920,-294 920,-300 914,-306 908,-306"/>
<text text-anchor="start" x="806" y="-290.8" font-family="Helvetica,sans-Serif" font-size="14.00" fill="#000000">Balance ≤ 0.092</text>
<text text-anchor="start" x="808" y="-275.8" font-family="Helvetica,sans-Serif" font-size="14.00" fill="#000000">entropy = 0.834</text>
<text text-anchor="start" x="811" y="-260.8" font-family="Helvetica,sans-Serif" font-size="14.00" fill="#000000">samples = 132</text>
<text text-anchor="start" x="809" y="-245.8" font-family="Helvetica,sans-Serif" font-size="14.00" fill="#000000">value = [35, 97]</text>
<text text-anchor="start" x="830" y="-230.8" font-family="Helvetica,sans-Serif" font-size="14.00" fill="#000000">class = 0</text>
</g>
<!-- 1&#45;&gt;9 -->
<g id="edge9" class="edge">
<title>1&#45;&gt;9</title>
<path fill="none" stroke="#000000" d="M859,-341.8796C859,-333.6838 859,-324.9891 859,-316.5013"/>
<polygon fill="#000000" stroke="#000000" points="862.5001,-316.298 859,-306.2981 855.5001,-316.2981 862.5001,-316.298"/>
</g>
<!-- 3 -->
<g id="node4" class="node">
<title>3</title>
<path fill="#ea985e" stroke="#000000" d="M308.5,-187C308.5,-187 139.5,-187 139.5,-187 133.5,-187 127.5,-181 127.5,-175 127.5,-175 127.5,-116 127.5,-116 127.5,-110 133.5,-104 139.5,-104 139.5,-104 308.5,-104 308.5,-104 314.5,-104 320.5,-110 320.5,-116 320.5,-116 320.5,-175 320.5,-175 320.5,-181 314.5,-187 308.5,-187"/>
<text text-anchor="start" x="135.5" y="-171.8" font-family="Helvetica,sans-Serif" font-size="14.00" fill="#000000">Geography_Germany ≤ 0.5</text>
<text text-anchor="start" x="173" y="-156.8" font-family="Helvetica,sans-Serif" font-size="14.00" fill="#000000">entropy = 0.624</text>
<text text-anchor="start" x="172" y="-141.8" font-family="Helvetica,sans-Serif" font-size="14.00" fill="#000000">samples = 2971</text>
<text text-anchor="start" x="162" y="-126.8" font-family="Helvetica,sans-Serif" font-size="14.00" fill="#000000">value = [2508, 463]</text>
<text text-anchor="start" x="195" y="-111.8" font-family="Helvetica,sans-Serif" font-size="14.00" fill="#000000">class = 1</text>
</g>
<!-- 2&#45;&gt;3 -->
<g id="edge3" class="edge">
<title>2&#45;&gt;3</title>
<path fill="none" stroke="#000000" d="M389.4452,-226.5205C366.66,-215.3623 341.4918,-203.0371 317.8066,-191.4382"/>
<polygon fill="#000000" stroke="#000000" points="319.33,-188.2871 308.8097,-187.0323 316.2513,-194.5738 319.33,-188.2871"/>
</g>
<!-- 6 -->
<g id="node7" class="node">
<title>6</title>
<path fill="#e68742" stroke="#000000" d="M525,-187C525,-187 409,-187 409,-187 403,-187 397,-181 397,-175 397,-175 397,-116 397,-116 397,-110 403,-104 409,-104 409,-104 525,-104 525,-104 531,-104 537,-110 537,-116 537,-116 537,-175 537,-175 537,-181 531,-187 525,-187"/>
<text text-anchor="start" x="418.5" y="-171.8" font-family="Helvetica,sans-Serif" font-size="14.00" fill="#000000">Balance ≤ 0.27</text>
<text text-anchor="start" x="416" y="-156.8" font-family="Helvetica,sans-Serif" font-size="14.00" fill="#000000">entropy = 0.253</text>
<text text-anchor="start" x="415" y="-141.8" font-family="Helvetica,sans-Serif" font-size="14.00" fill="#000000">samples = 3027</text>
<text text-anchor="start" x="405" y="-126.8" font-family="Helvetica,sans-Serif" font-size="14.00" fill="#000000">value = [2899, 128]</text>
<text text-anchor="start" x="438" y="-111.8" font-family="Helvetica,sans-Serif" font-size="14.00" fill="#000000">class = 1</text>
</g>
<!-- 2&#45;&gt;6 -->
<g id="edge6" class="edge">
<title>2&#45;&gt;6</title>
<path fill="none" stroke="#000000" d="M467,-222.8796C467,-214.6838 467,-205.9891 467,-197.5013"/>
<polygon fill="#000000" stroke="#000000" points="470.5001,-197.298 467,-187.2981 463.5001,-197.2981 470.5001,-197.298"/>
</g>
<!-- 4 -->
<g id="node5" class="node">
<title>4</title>
<path fill="#e99355" stroke="#000000" d="M128,-68C128,-68 12,-68 12,-68 6,-68 0,-62 0,-56 0,-56 0,-12 0,-12 0,-6 6,0 12,0 12,0 128,0 128,0 134,0 140,-6 140,-12 140,-12 140,-56 140,-56 140,-62 134,-68 128,-68"/>
<text text-anchor="start" x="19" y="-52.8" font-family="Helvetica,sans-Serif" font-size="14.00" fill="#000000">entropy = 0.537</text>
<text text-anchor="start" x="18" y="-37.8" font-family="Helvetica,sans-Serif" font-size="14.00" fill="#000000">samples = 2264</text>
<text text-anchor="start" x="8" y="-22.8" font-family="Helvetica,sans-Serif" font-size="14.00" fill="#000000">value = [1986, 278]</text>
<text text-anchor="start" x="41" y="-7.8" font-family="Helvetica,sans-Serif" font-size="14.00" fill="#000000">class = 1</text>
</g>
<!-- 3&#45;&gt;4 -->
<g id="edge4" class="edge">
<title>3&#45;&gt;4</title>
<path fill="none" stroke="#000000" d="M166.6561,-103.9815C153.2006,-94.2394 138.8869,-83.8759 125.5133,-74.193"/>
<polygon fill="#000000" stroke="#000000" points="127.4763,-71.2933 117.3238,-68.2637 123.3711,-76.9632 127.4763,-71.2933"/>
</g>
<!-- 5 -->
<g id="node6" class="node">
<title>5</title>
<path fill="#eeae7f" stroke="#000000" d="M278,-68C278,-68 170,-68 170,-68 164,-68 158,-62 158,-56 158,-56 158,-12 158,-12 158,-6 164,0 170,0 170,0 278,0 278,0 284,0 290,-6 290,-12 290,-12 290,-56 290,-56 290,-62 284,-68 278,-68"/>
<text text-anchor="start" x="173" y="-52.8" font-family="Helvetica,sans-Serif" font-size="14.00" fill="#000000">entropy = 0.829</text>
<text text-anchor="start" x="176" y="-37.8" font-family="Helvetica,sans-Serif" font-size="14.00" fill="#000000">samples = 707</text>
<text text-anchor="start" x="166" y="-22.8" font-family="Helvetica,sans-Serif" font-size="14.00" fill="#000000">value = [522, 185]</text>
<text text-anchor="start" x="195" y="-7.8" font-family="Helvetica,sans-Serif" font-size="14.00" fill="#000000">class = 1</text>
</g>
<!-- 3&#45;&gt;5 -->
<g id="edge5" class="edge">
<title>3&#45;&gt;5</title>
<path fill="none" stroke="#000000" d="M224,-103.9815C224,-95.618 224,-86.7965 224,-78.3409"/>
<polygon fill="#000000" stroke="#000000" points="227.5001,-78.2636 224,-68.2637 220.5001,-78.2637 227.5001,-78.2636"/>
</g>
<!-- 7 -->
<g id="node8" class="node">
<title>7</title>
<path fill="#e6843d" stroke="#000000" d="M428,-68C428,-68 320,-68 320,-68 314,-68 308,-62 308,-56 308,-56 308,-12 308,-12 308,-6 314,0 320,0 320,0 428,0 428,0 434,0 440,-6 440,-12 440,-12 440,-56 440,-56 440,-62 434,-68 428,-68"/>
<text text-anchor="start" x="323" y="-52.8" font-family="Helvetica,sans-Serif" font-size="14.00" fill="#000000">entropy = 0.147</text>
<text text-anchor="start" x="322" y="-37.8" font-family="Helvetica,sans-Serif" font-size="14.00" fill="#000000">samples = 1817</text>
<text text-anchor="start" x="316" y="-22.8" font-family="Helvetica,sans-Serif" font-size="14.00" fill="#000000">value = [1779, 38]</text>
<text text-anchor="start" x="345" y="-7.8" font-family="Helvetica,sans-Serif" font-size="14.00" fill="#000000">class = 1</text>
</g>
<!-- 6&#45;&gt;7 -->
<g id="edge7" class="edge">
<title>6&#45;&gt;7</title>
<path fill="none" stroke="#000000" d="M432.3702,-103.9815C424.7811,-94.8828 416.74,-85.242 409.1314,-76.1199"/>
<polygon fill="#000000" stroke="#000000" points="411.6717,-73.7012 402.5787,-68.2637 406.2961,-78.1849 411.6717,-73.7012"/>
</g>
<!-- 8 -->
<g id="node9" class="node">
<title>8</title>
<path fill="#e78b49" stroke="#000000" d="M578,-68C578,-68 470,-68 470,-68 464,-68 458,-62 458,-56 458,-56 458,-12 458,-12 458,-6 464,0 470,0 470,0 578,0 578,0 584,0 590,-6 590,-12 590,-12 590,-56 590,-56 590,-62 584,-68 578,-68"/>
<text text-anchor="start" x="473" y="-52.8" font-family="Helvetica,sans-Serif" font-size="14.00" fill="#000000">entropy = 0.382</text>
<text text-anchor="start" x="472" y="-37.8" font-family="Helvetica,sans-Serif" font-size="14.00" fill="#000000">samples = 1210</text>
<text text-anchor="start" x="466" y="-22.8" font-family="Helvetica,sans-Serif" font-size="14.00" fill="#000000">value = [1120, 90]</text>
<text text-anchor="start" x="495" y="-7.8" font-family="Helvetica,sans-Serif" font-size="14.00" fill="#000000">class = 1</text>
</g>
<!-- 6&#45;&gt;8 -->
<g id="edge8" class="edge">
<title>6&#45;&gt;8</title>
<path fill="none" stroke="#000000" d="M488.2247,-103.9815C492.6881,-95.2504 497.4067,-86.0202 501.9013,-77.2281"/>
<polygon fill="#000000" stroke="#000000" points="505.0486,-78.7608 506.484,-68.2637 498.8158,-75.5745 505.0486,-78.7608"/>
</g>
<!-- 10 -->
<g id="node11" class="node">
<title>10</title>
<path fill="#fefaf8" stroke="#000000" d="M838,-187C838,-187 688,-187 688,-187 682,-187 676,-181 676,-175 676,-175 676,-116 676,-116 676,-110 682,-104 688,-104 688,-104 838,-104 838,-104 844,-104 850,-110 850,-116 850,-116 850,-175 850,-175 850,-181 844,-187 838,-187"/>
<text text-anchor="start" x="684" y="-171.8" font-family="Helvetica,sans-Serif" font-size="14.00" fill="#000000">EstimatedSalary ≤ 0.838</text>
<text text-anchor="start" x="720.5" y="-156.8" font-family="Helvetica,sans-Serif" font-size="14.00" fill="#000000">entropy = 1.0</text>
<text text-anchor="start" x="719" y="-141.8" font-family="Helvetica,sans-Serif" font-size="14.00" fill="#000000">samples = 53</text>
<text text-anchor="start" x="713" y="-126.8" font-family="Helvetica,sans-Serif" font-size="14.00" fill="#000000">value = [27, 26]</text>
<text text-anchor="start" x="734" y="-111.8" font-family="Helvetica,sans-Serif" font-size="14.00" fill="#000000">class = 1</text>
</g>
<!-- 9&#45;&gt;10 -->
<g id="edge10" class="edge">
<title>9&#45;&gt;10</title>
<path fill="none" stroke="#000000" d="M825.4239,-222.8796C818.2309,-213.9633 810.5616,-204.4565 803.149,-195.268"/>
<polygon fill="#000000" stroke="#000000" points="805.7224,-192.8836 796.7195,-187.2981 800.2742,-197.2788 805.7224,-192.8836"/>
</g>
<!-- 13 -->
<g id="node14" class="node">
<title>13</title>
<path fill="#4fa8e8" stroke="#000000" d="M1030,-187C1030,-187 880,-187 880,-187 874,-187 868,-181 868,-175 868,-175 868,-116 868,-116 868,-110 874,-104 880,-104 880,-104 1030,-104 1030,-104 1036,-104 1042,-110 1042,-116 1042,-116 1042,-175 1042,-175 1042,-181 1036,-187 1030,-187"/>
<text text-anchor="start" x="876" y="-171.8" font-family="Helvetica,sans-Serif" font-size="14.00" fill="#000000">EstimatedSalary ≤ 0.943</text>
<text text-anchor="start" x="904" y="-156.8" font-family="Helvetica,sans-Serif" font-size="14.00" fill="#000000">entropy = 0.473</text>
<text text-anchor="start" x="911" y="-141.8" font-family="Helvetica,sans-Serif" font-size="14.00" fill="#000000">samples = 79</text>
<text text-anchor="start" x="909.5" y="-126.8" font-family="Helvetica,sans-Serif" font-size="14.00" fill="#000000">value = [8, 71]</text>
<text text-anchor="start" x="926" y="-111.8" font-family="Helvetica,sans-Serif" font-size="14.00" fill="#000000">class = 0</text>
</g>
<!-- 9&#45;&gt;13 -->
<g id="edge13" class="edge">
<title>9&#45;&gt;13</title>
<path fill="none" stroke="#000000" d="M892.5761,-222.8796C899.7691,-213.9633 907.4384,-204.4565 914.851,-195.268"/>
<polygon fill="#000000" stroke="#000000" points="917.7258,-197.2788 921.2805,-187.2981 912.2776,-192.8836 917.7258,-197.2788"/>
</g>
<!-- 11 -->
<g id="node12" class="node">
<title>11</title>
<path fill="#f5d0b6" stroke="#000000" d="M714,-68C714,-68 620,-68 620,-68 614,-68 608,-62 608,-56 608,-56 608,-12 608,-12 608,-6 614,0 620,0 620,0 714,0 714,0 720,0 726,-6 726,-12 726,-12 726,-56 726,-56 726,-62 720,-68 714,-68"/>
<text text-anchor="start" x="616" y="-52.8" font-family="Helvetica,sans-Serif" font-size="14.00" fill="#000000">entropy = 0.962</text>
<text text-anchor="start" x="623" y="-37.8" font-family="Helvetica,sans-Serif" font-size="14.00" fill="#000000">samples = 44</text>
<text text-anchor="start" x="617" y="-22.8" font-family="Helvetica,sans-Serif" font-size="14.00" fill="#000000">value = [27, 17]</text>
<text text-anchor="start" x="638" y="-7.8" font-family="Helvetica,sans-Serif" font-size="14.00" fill="#000000">class = 1</text>
</g>
<!-- 10&#45;&gt;11 -->
<g id="edge11" class="edge">
<title>10&#45;&gt;11</title>
<path fill="none" stroke="#000000" d="M727.2531,-103.9815C719.3401,-94.7908 710.9509,-85.0472 703.0268,-75.8436"/>
<polygon fill="#000000" stroke="#000000" points="705.6776,-73.5582 696.5006,-68.2637 700.3729,-78.1255 705.6776,-73.5582"/>
</g>
<!-- 12 -->
<g id="node13" class="node">
<title>12</title>
<path fill="#399de5" stroke="#000000" d="M833.5,-68C833.5,-68 756.5,-68 756.5,-68 750.5,-68 744.5,-62 744.5,-56 744.5,-56 744.5,-12 744.5,-12 744.5,-6 750.5,0 756.5,0 756.5,0 833.5,0 833.5,0 839.5,0 845.5,-6 845.5,-12 845.5,-12 845.5,-56 845.5,-56 845.5,-62 839.5,-68 833.5,-68"/>
<text text-anchor="start" x="752.5" y="-52.8" font-family="Helvetica,sans-Serif" font-size="14.00" fill="#000000">entropy = 0.0</text>
<text text-anchor="start" x="755.5" y="-37.8" font-family="Helvetica,sans-Serif" font-size="14.00" fill="#000000">samples = 9</text>
<text text-anchor="start" x="753.5" y="-22.8" font-family="Helvetica,sans-Serif" font-size="14.00" fill="#000000">value = [0, 9]</text>
<text text-anchor="start" x="766" y="-7.8" font-family="Helvetica,sans-Serif" font-size="14.00" fill="#000000">class = 0</text>
</g>
<!-- 10&#45;&gt;12 -->
<g id="edge12" class="edge">
<title>10&#45;&gt;12</title>
<path fill="none" stroke="#000000" d="M774.9156,-103.9815C777.3423,-95.5261 779.9033,-86.6026 782.3543,-78.0623"/>
<polygon fill="#000000" stroke="#000000" points="785.772,-78.8412 785.1665,-68.2637 779.0436,-76.9101 785.772,-78.8412"/>
</g>
<!-- 14 -->
<g id="node15" class="node">
<title>14</title>
<path fill="#47a4e7" stroke="#000000" d="M970,-68C970,-68 876,-68 876,-68 870,-68 864,-62 864,-56 864,-56 864,-12 864,-12 864,-6 870,0 876,0 876,0 970,0 970,0 976,0 982,-6 982,-12 982,-12 982,-56 982,-56 982,-62 976,-68 970,-68"/>
<text text-anchor="start" x="872" y="-52.8" font-family="Helvetica,sans-Serif" font-size="14.00" fill="#000000">entropy = 0.353</text>
<text text-anchor="start" x="879" y="-37.8" font-family="Helvetica,sans-Serif" font-size="14.00" fill="#000000">samples = 75</text>
<text text-anchor="start" x="877.5" y="-22.8" font-family="Helvetica,sans-Serif" font-size="14.00" fill="#000000">value = [5, 70]</text>
<text text-anchor="start" x="894" y="-7.8" font-family="Helvetica,sans-Serif" font-size="14.00" fill="#000000">class = 0</text>
</g>
<!-- 13&#45;&gt;14 -->
<g id="edge14" class="edge">
<title>13&#45;&gt;14</title>
<path fill="none" stroke="#000000" d="M943.0844,-103.9815C940.6577,-95.5261 938.0967,-86.6026 935.6457,-78.0623"/>
<polygon fill="#000000" stroke="#000000" points="938.9564,-76.9101 932.8335,-68.2637 932.228,-78.8412 938.9564,-76.9101"/>
</g>
<!-- 15 -->
<g id="node16" class="node">
<title>15</title>
<path fill="#eeab7b" stroke="#000000" d="M1106,-68C1106,-68 1012,-68 1012,-68 1006,-68 1000,-62 1000,-56 1000,-56 1000,-12 1000,-12 1000,-6 1006,0 1012,0 1012,0 1106,0 1106,0 1112,0 1118,-6 1118,-12 1118,-12 1118,-56 1118,-56 1118,-62 1112,-68 1106,-68"/>
<text text-anchor="start" x="1008" y="-52.8" font-family="Helvetica,sans-Serif" font-size="14.00" fill="#000000">entropy = 0.811</text>
<text text-anchor="start" x="1019.5" y="-37.8" font-family="Helvetica,sans-Serif" font-size="14.00" fill="#000000">samples = 4</text>
<text text-anchor="start" x="1017.5" y="-22.8" font-family="Helvetica,sans-Serif" font-size="14.00" fill="#000000">value = [3, 1]</text>
<text text-anchor="start" x="1030" y="-7.8" font-family="Helvetica,sans-Serif" font-size="14.00" fill="#000000">class = 1</text>
</g>
<!-- 13&#45;&gt;15 -->
<g id="edge15" class="edge">
<title>13&#45;&gt;15</title>
<path fill="none" stroke="#000000" d="M993.7258,-103.9815C1002.2982,-94.7908 1011.3865,-85.0472 1019.971,-75.8436"/>
<polygon fill="#000000" stroke="#000000" points="1022.7796,-77.9637 1027.0411,-68.2637 1017.6607,-73.1891 1022.7796,-77.9637"/>
</g>
<!-- 17 -->
<g id="node18" class="node">
<title>17</title>
<path fill="#eead7f" stroke="#000000" d="M1482.5,-306C1482.5,-306 1351.5,-306 1351.5,-306 1345.5,-306 1339.5,-300 1339.5,-294 1339.5,-294 1339.5,-235 1339.5,-235 1339.5,-229 1345.5,-223 1351.5,-223 1351.5,-223 1482.5,-223 1482.5,-223 1488.5,-223 1494.5,-229 1494.5,-235 1494.5,-235 1494.5,-294 1494.5,-294 1494.5,-300 1488.5,-306 1482.5,-306"/>
<text text-anchor="start" x="1347.5" y="-290.8" font-family="Helvetica,sans-Serif" font-size="14.00" fill="#000000">NumOfProducts ≤ 2.5</text>
<text text-anchor="start" x="1366" y="-275.8" font-family="Helvetica,sans-Serif" font-size="14.00" fill="#000000">entropy = 0.828</text>
<text text-anchor="start" x="1365" y="-260.8" font-family="Helvetica,sans-Serif" font-size="14.00" fill="#000000">samples = 1557</text>
<text text-anchor="start" x="1355" y="-245.8" font-family="Helvetica,sans-Serif" font-size="14.00" fill="#000000">value = [1151, 406]</text>
<text text-anchor="start" x="1388" y="-230.8" font-family="Helvetica,sans-Serif" font-size="14.00" fill="#000000">class = 1</text>
</g>
<!-- 16&#45;&gt;17 -->
<g id="edge17" class="edge">
<title>16&#45;&gt;17</title>
<path fill="none" stroke="#000000" d="M1417,-341.8796C1417,-333.6838 1417,-324.9891 1417,-316.5013"/>
<polygon fill="#000000" stroke="#000000" points="1420.5001,-316.298 1417,-306.2981 1413.5001,-316.2981 1420.5001,-316.298"/>
</g>
<!-- 24 -->
<g id="node25" class="node">
<title>24</title>
<path fill="#d4eaf9" stroke="#000000" d="M1881,-306C1881,-306 1773,-306 1773,-306 1767,-306 1761,-300 1761,-294 1761,-294 1761,-235 1761,-235 1761,-229 1767,-223 1773,-223 1773,-223 1881,-223 1881,-223 1887,-223 1893,-229 1893,-235 1893,-235 1893,-294 1893,-294 1893,-300 1887,-306 1881,-306"/>
<text text-anchor="start" x="1792" y="-290.8" font-family="Helvetica,sans-Serif" font-size="14.00" fill="#000000">Age ≤ 50.5</text>
<text text-anchor="start" x="1776" y="-275.8" font-family="Helvetica,sans-Serif" font-size="14.00" fill="#000000">entropy = 0.989</text>
<text text-anchor="start" x="1775" y="-260.8" font-family="Helvetica,sans-Serif" font-size="14.00" fill="#000000">samples = 1313</text>
<text text-anchor="start" x="1769" y="-245.8" font-family="Helvetica,sans-Serif" font-size="14.00" fill="#000000">value = [576, 737]</text>
<text text-anchor="start" x="1798" y="-230.8" font-family="Helvetica,sans-Serif" font-size="14.00" fill="#000000">class = 0</text>
</g>
<!-- 16&#45;&gt;24 -->
<g id="edge24" class="edge">
<title>16&#45;&gt;24</title>
<path fill="none" stroke="#000000" d="M1503.6998,-358.3359C1577.0933,-337.0339 1681.2422,-306.8053 1751.3179,-286.4663"/>
<polygon fill="#000000" stroke="#000000" points="1752.345,-289.8127 1760.973,-283.6639 1750.3937,-283.0901 1752.345,-289.8127"/>
</g>
<!-- 18 -->
<g id="node19" class="node">
<title>18</title>
<path fill="#eda775" stroke="#000000" d="M1405.5,-187C1405.5,-187 1274.5,-187 1274.5,-187 1268.5,-187 1262.5,-181 1262.5,-175 1262.5,-175 1262.5,-116 1262.5,-116 1262.5,-110 1268.5,-104 1274.5,-104 1274.5,-104 1405.5,-104 1405.5,-104 1411.5,-104 1417.5,-110 1417.5,-116 1417.5,-116 1417.5,-175 1417.5,-175 1417.5,-181 1411.5,-187 1405.5,-187"/>
<text text-anchor="start" x="1270.5" y="-171.8" font-family="Helvetica,sans-Serif" font-size="14.00" fill="#000000">NumOfProducts ≤ 1.5</text>
<text text-anchor="start" x="1289" y="-156.8" font-family="Helvetica,sans-Serif" font-size="14.00" fill="#000000">entropy = 0.781</text>
<text text-anchor="start" x="1288" y="-141.8" font-family="Helvetica,sans-Serif" font-size="14.00" fill="#000000">samples = 1490</text>
<text text-anchor="start" x="1278" y="-126.8" font-family="Helvetica,sans-Serif" font-size="14.00" fill="#000000">value = [1145, 345]</text>
<text text-anchor="start" x="1311" y="-111.8" font-family="Helvetica,sans-Serif" font-size="14.00" fill="#000000">class = 1</text>
</g>
<!-- 17&#45;&gt;18 -->
<g id="edge18" class="edge">
<title>17&#45;&gt;18</title>
<path fill="none" stroke="#000000" d="M1390.0691,-222.8796C1384.4163,-214.1434 1378.3967,-204.8404 1372.5634,-195.8253"/>
<polygon fill="#000000" stroke="#000000" points="1375.4169,-193.7924 1367.0458,-187.2981 1369.5399,-197.5952 1375.4169,-193.7924"/>
</g>
<!-- 21 -->
<g id="node22" class="node">
<title>21</title>
<path fill="#4ca7e8" stroke="#000000" d="M1542,-187C1542,-187 1448,-187 1448,-187 1442,-187 1436,-181 1436,-175 1436,-175 1436,-116 1436,-116 1436,-110 1442,-104 1448,-104 1448,-104 1542,-104 1542,-104 1548,-104 1554,-110 1554,-116 1554,-116 1554,-175 1554,-175 1554,-181 1548,-187 1542,-187"/>
<text text-anchor="start" x="1460" y="-171.8" font-family="Helvetica,sans-Serif" font-size="14.00" fill="#000000">Age ≤ 65.5</text>
<text text-anchor="start" x="1444" y="-156.8" font-family="Helvetica,sans-Serif" font-size="14.00" fill="#000000">entropy = 0.435</text>
<text text-anchor="start" x="1451" y="-141.8" font-family="Helvetica,sans-Serif" font-size="14.00" fill="#000000">samples = 67</text>
<text text-anchor="start" x="1449.5" y="-126.8" font-family="Helvetica,sans-Serif" font-size="14.00" fill="#000000">value = [6, 61]</text>
<text text-anchor="start" x="1466" y="-111.8" font-family="Helvetica,sans-Serif" font-size="14.00" fill="#000000">class = 0</text>
</g>
<!-- 17&#45;&gt;21 -->
<g id="edge21" class="edge">
<title>17&#45;&gt;21</title>
<path fill="none" stroke="#000000" d="M1444.2806,-222.8796C1450.0068,-214.1434 1456.1046,-204.8404 1462.0137,-195.8253"/>
<polygon fill="#000000" stroke="#000000" points="1465.0482,-197.5803 1467.6029,-187.2981 1459.1937,-193.7429 1465.0482,-197.5803"/>
</g>
<!-- 19 -->
<g id="node20" class="node">
<title>19</title>
<path fill="#f2c09b" stroke="#000000" d="M1256,-68C1256,-68 1148,-68 1148,-68 1142,-68 1136,-62 1136,-56 1136,-56 1136,-12 1136,-12 1136,-6 1142,0 1148,0 1148,0 1256,0 1256,0 1262,0 1268,-6 1268,-12 1268,-12 1268,-56 1268,-56 1268,-62 1262,-68 1256,-68"/>
<text text-anchor="start" x="1151" y="-52.8" font-family="Helvetica,sans-Serif" font-size="14.00" fill="#000000">entropy = 0.917</text>
<text text-anchor="start" x="1154" y="-37.8" font-family="Helvetica,sans-Serif" font-size="14.00" fill="#000000">samples = 804</text>
<text text-anchor="start" x="1144" y="-22.8" font-family="Helvetica,sans-Serif" font-size="14.00" fill="#000000">value = [537, 267]</text>
<text text-anchor="start" x="1173" y="-7.8" font-family="Helvetica,sans-Serif" font-size="14.00" fill="#000000">class = 1</text>
</g>
<!-- 18&#45;&gt;19 -->
<g id="edge19" class="edge">
<title>18&#45;&gt;19</title>
<path fill="none" stroke="#000000" d="M1288.6139,-103.9815C1276.7839,-94.4232 1264.2136,-84.2668 1252.4249,-74.7419"/>
<polygon fill="#000000" stroke="#000000" points="1254.3851,-71.826 1244.4071,-68.2637 1249.9858,-77.2708 1254.3851,-71.826"/>
</g>
<!-- 20 -->
<g id="node21" class="node">
<title>20</title>
<path fill="#e89152" stroke="#000000" d="M1398,-68C1398,-68 1298,-68 1298,-68 1292,-68 1286,-62 1286,-56 1286,-56 1286,-12 1286,-12 1286,-6 1292,0 1298,0 1298,0 1398,0 1398,0 1404,0 1410,-6 1410,-12 1410,-12 1410,-56 1410,-56 1410,-62 1404,-68 1398,-68"/>
<text text-anchor="start" x="1297" y="-52.8" font-family="Helvetica,sans-Serif" font-size="14.00" fill="#000000">entropy = 0.511</text>
<text text-anchor="start" x="1300" y="-37.8" font-family="Helvetica,sans-Serif" font-size="14.00" fill="#000000">samples = 686</text>
<text text-anchor="start" x="1294" y="-22.8" font-family="Helvetica,sans-Serif" font-size="14.00" fill="#000000">value = [608, 78]</text>
<text text-anchor="start" x="1319" y="-7.8" font-family="Helvetica,sans-Serif" font-size="14.00" fill="#000000">class = 1</text>
</g>
<!-- 18&#45;&gt;20 -->
<g id="edge20" class="edge">
<title>18&#45;&gt;20</title>
<path fill="none" stroke="#000000" d="M1342.9789,-103.9815C1343.579,-95.618 1344.2119,-86.7965 1344.8186,-78.3409"/>
<polygon fill="#000000" stroke="#000000" points="1348.3169,-78.4885 1345.5416,-68.2637 1341.3349,-77.9875 1348.3169,-78.4885"/>
</g>
<!-- 22 -->
<g id="node23" class="node">
<title>22</title>
<path fill="#40a0e6" stroke="#000000" d="M1534,-68C1534,-68 1440,-68 1440,-68 1434,-68 1428,-62 1428,-56 1428,-56 1428,-12 1428,-12 1428,-6 1434,0 1440,0 1440,0 1534,0 1534,0 1540,0 1546,-6 1546,-12 1546,-12 1546,-56 1546,-56 1546,-62 1540,-68 1534,-68"/>
<text text-anchor="start" x="1436" y="-52.8" font-family="Helvetica,sans-Serif" font-size="14.00" fill="#000000">entropy = 0.206</text>
<text text-anchor="start" x="1443" y="-37.8" font-family="Helvetica,sans-Serif" font-size="14.00" fill="#000000">samples = 62</text>
<text text-anchor="start" x="1441.5" y="-22.8" font-family="Helvetica,sans-Serif" font-size="14.00" fill="#000000">value = [2, 60]</text>
<text text-anchor="start" x="1458" y="-7.8" font-family="Helvetica,sans-Serif" font-size="14.00" fill="#000000">class = 0</text>
</g>
<!-- 21&#45;&gt;22 -->
<g id="edge22" class="edge">
<title>21&#45;&gt;22</title>
<path fill="none" stroke="#000000" d="M1492.0211,-103.9815C1491.421,-95.618 1490.7881,-86.7965 1490.1814,-78.3409"/>
<polygon fill="#000000" stroke="#000000" points="1493.6651,-77.9875 1489.4584,-68.2637 1486.6831,-78.4885 1493.6651,-77.9875"/>
</g>
<!-- 23 -->
<g id="node24" class="node">
<title>23</title>
<path fill="#eca06a" stroke="#000000" d="M1670,-68C1670,-68 1576,-68 1576,-68 1570,-68 1564,-62 1564,-56 1564,-56 1564,-12 1564,-12 1564,-6 1570,0 1576,0 1576,0 1670,0 1670,0 1676,0 1682,-6 1682,-12 1682,-12 1682,-56 1682,-56 1682,-62 1676,-68 1670,-68"/>
<text text-anchor="start" x="1572" y="-52.8" font-family="Helvetica,sans-Serif" font-size="14.00" fill="#000000">entropy = 0.722</text>
<text text-anchor="start" x="1583.5" y="-37.8" font-family="Helvetica,sans-Serif" font-size="14.00" fill="#000000">samples = 5</text>
<text text-anchor="start" x="1581.5" y="-22.8" font-family="Helvetica,sans-Serif" font-size="14.00" fill="#000000">value = [4, 1]</text>
<text text-anchor="start" x="1594" y="-7.8" font-family="Helvetica,sans-Serif" font-size="14.00" fill="#000000">class = 1</text>
</g>
<!-- 21&#45;&gt;23 -->
<g id="edge23" class="edge">
<title>21&#45;&gt;23</title>
<path fill="none" stroke="#000000" d="M1542.6625,-103.9815C1553.5297,-94.5151 1565.0705,-84.462 1575.9135,-75.0168"/>
<polygon fill="#000000" stroke="#000000" points="1578.4245,-77.4712 1583.6659,-68.2637 1573.8266,-72.1929 1578.4245,-77.4712"/>
</g>
<!-- 25 -->
<g id="node26" class="node">
<title>25</title>
<path fill="#fae6d7" stroke="#000000" d="M1892.5,-187C1892.5,-187 1761.5,-187 1761.5,-187 1755.5,-187 1749.5,-181 1749.5,-175 1749.5,-175 1749.5,-116 1749.5,-116 1749.5,-110 1755.5,-104 1761.5,-104 1761.5,-104 1892.5,-104 1892.5,-104 1898.5,-104 1904.5,-110 1904.5,-116 1904.5,-116 1904.5,-175 1904.5,-175 1904.5,-181 1898.5,-187 1892.5,-187"/>
<text text-anchor="start" x="1757.5" y="-171.8" font-family="Helvetica,sans-Serif" font-size="14.00" fill="#000000">NumOfProducts ≤ 1.5</text>
<text text-anchor="start" x="1776" y="-156.8" font-family="Helvetica,sans-Serif" font-size="14.00" fill="#000000">entropy = 0.991</text>
<text text-anchor="start" x="1779" y="-141.8" font-family="Helvetica,sans-Serif" font-size="14.00" fill="#000000">samples = 934</text>
<text text-anchor="start" x="1769" y="-126.8" font-family="Helvetica,sans-Serif" font-size="14.00" fill="#000000">value = [519, 415]</text>
<text text-anchor="start" x="1798" y="-111.8" font-family="Helvetica,sans-Serif" font-size="14.00" fill="#000000">class = 1</text>
</g>
<!-- 24&#45;&gt;25 -->
<g id="edge25" class="edge">
<title>24&#45;&gt;25</title>
<path fill="none" stroke="#000000" d="M1827,-222.8796C1827,-214.6838 1827,-205.9891 1827,-197.5013"/>
<polygon fill="#000000" stroke="#000000" points="1830.5001,-197.298 1827,-187.2981 1823.5001,-197.2981 1830.5001,-197.298"/>
</g>
<!-- 28 -->
<g id="node29" class="node">
<title>28</title>
<path fill="#5caeea" stroke="#000000" d="M2127.5,-187C2127.5,-187 1996.5,-187 1996.5,-187 1990.5,-187 1984.5,-181 1984.5,-175 1984.5,-175 1984.5,-116 1984.5,-116 1984.5,-110 1990.5,-104 1996.5,-104 1996.5,-104 2127.5,-104 2127.5,-104 2133.5,-104 2139.5,-110 2139.5,-116 2139.5,-116 2139.5,-175 2139.5,-175 2139.5,-181 2133.5,-187 2127.5,-187"/>
<text text-anchor="start" x="1992.5" y="-171.8" font-family="Helvetica,sans-Serif" font-size="14.00" fill="#000000">NumOfProducts ≤ 2.5</text>
<text text-anchor="start" x="2011" y="-156.8" font-family="Helvetica,sans-Serif" font-size="14.00" fill="#000000">entropy = 0.611</text>
<text text-anchor="start" x="2014" y="-141.8" font-family="Helvetica,sans-Serif" font-size="14.00" fill="#000000">samples = 379</text>
<text text-anchor="start" x="2008" y="-126.8" font-family="Helvetica,sans-Serif" font-size="14.00" fill="#000000">value = [57, 322]</text>
<text text-anchor="start" x="2033" y="-111.8" font-family="Helvetica,sans-Serif" font-size="14.00" fill="#000000">class = 0</text>
</g>
<!-- 24&#45;&gt;28 -->
<g id="edge28" class="edge">
<title>24&#45;&gt;28</title>
<path fill="none" stroke="#000000" d="M1893.086,-231.0352C1918.5774,-218.1268 1948.0903,-203.1819 1975.2465,-189.4305"/>
<polygon fill="#000000" stroke="#000000" points="1977.0162,-192.4576 1984.3564,-184.8174 1973.8538,-186.2126 1977.0162,-192.4576"/>
</g>
<!-- 26 -->
<g id="node27" class="node">
<title>26</title>
<path fill="#cce6f8" stroke="#000000" d="M1820,-68C1820,-68 1712,-68 1712,-68 1706,-68 1700,-62 1700,-56 1700,-56 1700,-12 1700,-12 1700,-6 1706,0 1712,0 1712,0 1820,0 1820,0 1826,0 1832,-6 1832,-12 1832,-12 1832,-56 1832,-56 1832,-62 1826,-68 1820,-68"/>
<text text-anchor="start" x="1715" y="-52.8" font-family="Helvetica,sans-Serif" font-size="14.00" fill="#000000">entropy = 0.984</text>
<text text-anchor="start" x="1718" y="-37.8" font-family="Helvetica,sans-Serif" font-size="14.00" fill="#000000">samples = 529</text>
<text text-anchor="start" x="1708" y="-22.8" font-family="Helvetica,sans-Serif" font-size="14.00" fill="#000000">value = [225, 304]</text>
<text text-anchor="start" x="1737" y="-7.8" font-family="Helvetica,sans-Serif" font-size="14.00" fill="#000000">class = 0</text>
</g>
<!-- 25&#45;&gt;26 -->
<g id="edge26" class="edge">
<title>25&#45;&gt;26</title>
<path fill="none" stroke="#000000" d="M1804.2859,-103.9815C1799.5092,-95.2504 1794.4595,-86.0202 1789.6494,-77.2281"/>
<polygon fill="#000000" stroke="#000000" points="1792.6153,-75.3568 1784.7451,-68.2637 1786.4742,-78.7165 1792.6153,-75.3568"/>
</g>
<!-- 27 -->
<g id="node28" class="node">
<title>27</title>
<path fill="#efb184" stroke="#000000" d="M1970,-68C1970,-68 1862,-68 1862,-68 1856,-68 1850,-62 1850,-56 1850,-56 1850,-12 1850,-12 1850,-6 1856,0 1862,0 1862,0 1970,0 1970,0 1976,0 1982,-6 1982,-12 1982,-12 1982,-56 1982,-56 1982,-62 1976,-68 1970,-68"/>
<text text-anchor="start" x="1865" y="-52.8" font-family="Helvetica,sans-Serif" font-size="14.00" fill="#000000">entropy = 0.847</text>
<text text-anchor="start" x="1868" y="-37.8" font-family="Helvetica,sans-Serif" font-size="14.00" fill="#000000">samples = 405</text>
<text text-anchor="start" x="1858" y="-22.8" font-family="Helvetica,sans-Serif" font-size="14.00" fill="#000000">value = [294, 111]</text>
<text text-anchor="start" x="1887" y="-7.8" font-family="Helvetica,sans-Serif" font-size="14.00" fill="#000000">class = 1</text>
</g>
<!-- 25&#45;&gt;27 -->
<g id="edge27" class="edge">
<title>25&#45;&gt;27</title>
<path fill="none" stroke="#000000" d="M1860.1403,-103.9815C1867.403,-94.8828 1875.0983,-85.242 1882.3796,-76.1199"/>
<polygon fill="#000000" stroke="#000000" points="1885.1475,-78.2627 1888.6505,-68.2637 1879.6766,-73.8958 1885.1475,-78.2627"/>
</g>
<!-- 29 -->
<g id="node30" class="node">
<title>29</title>
<path fill="#61b1ea" stroke="#000000" d="M2112,-68C2112,-68 2012,-68 2012,-68 2006,-68 2000,-62 2000,-56 2000,-56 2000,-12 2000,-12 2000,-6 2006,0 2012,0 2012,0 2112,0 2112,0 2118,0 2124,-6 2124,-12 2124,-12 2124,-56 2124,-56 2124,-62 2118,-68 2112,-68"/>
<text text-anchor="start" x="2011" y="-52.8" font-family="Helvetica,sans-Serif" font-size="14.00" fill="#000000">entropy = 0.657</text>
<text text-anchor="start" x="2014" y="-37.8" font-family="Helvetica,sans-Serif" font-size="14.00" fill="#000000">samples = 336</text>
<text text-anchor="start" x="2008" y="-22.8" font-family="Helvetica,sans-Serif" font-size="14.00" fill="#000000">value = [57, 279]</text>
<text text-anchor="start" x="2033" y="-7.8" font-family="Helvetica,sans-Serif" font-size="14.00" fill="#000000">class = 0</text>
</g>
<!-- 28&#45;&gt;29 -->
<g id="edge29" class="edge">
<title>28&#45;&gt;29</title>
<path fill="none" stroke="#000000" d="M2062,-103.9815C2062,-95.618 2062,-86.7965 2062,-78.3409"/>
<polygon fill="#000000" stroke="#000000" points="2065.5001,-78.2636 2062,-68.2637 2058.5001,-78.2637 2065.5001,-78.2636"/>
</g>
<!-- 30 -->
<g id="node31" class="node">
<title>30</title>
<path fill="#399de5" stroke="#000000" d="M2237.5,-68C2237.5,-68 2154.5,-68 2154.5,-68 2148.5,-68 2142.5,-62 2142.5,-56 2142.5,-56 2142.5,-12 2142.5,-12 2142.5,-6 2148.5,0 2154.5,0 2154.5,0 2237.5,0 2237.5,0 2243.5,0 2249.5,-6 2249.5,-12 2249.5,-12 2249.5,-56 2249.5,-56 2249.5,-62 2243.5,-68 2237.5,-68"/>
<text text-anchor="start" x="2153.5" y="-52.8" font-family="Helvetica,sans-Serif" font-size="14.00" fill="#000000">entropy = 0.0</text>
<text text-anchor="start" x="2152" y="-37.8" font-family="Helvetica,sans-Serif" font-size="14.00" fill="#000000">samples = 43</text>
<text text-anchor="start" x="2150.5" y="-22.8" font-family="Helvetica,sans-Serif" font-size="14.00" fill="#000000">value = [0, 43]</text>
<text text-anchor="start" x="2167" y="-7.8" font-family="Helvetica,sans-Serif" font-size="14.00" fill="#000000">class = 0</text>
</g>
<!-- 28&#45;&gt;30 -->
<g id="edge30" class="edge">
<title>28&#45;&gt;30</title>
<path fill="none" stroke="#000000" d="M2111.8967,-103.9815C2123.3838,-94.4232 2135.5897,-84.2668 2147.0367,-74.7419"/>
<polygon fill="#000000" stroke="#000000" points="2149.3739,-77.3503 2154.8221,-68.2637 2144.8965,-71.9695 2149.3739,-77.3503"/>
</g>
</g>
</svg>
